<?xml version="1.0" encoding="UTF-8" standalone="no"?>
<svg
   width="456"
   height="456"
   viewBox="-3 0 32 32"
   version="1.1"
   id="svg4"
   sodipodi:docname="appiconfg.svg"
   inkscape:version="1.3.2 (091e20e, 2023-11-25, custom)"
   xmlns:inkscape="http://www.inkscape.org/namespaces/inkscape"
   xmlns:sodipodi="http://sodipodi.sourceforge.net/DTD/sodipodi-0.dtd"
   xmlns:xlink="http://www.w3.org/1999/xlink"
   xmlns="http://www.w3.org/2000/svg"
   xmlns:svg="http://www.w3.org/2000/svg">
  <defs
     id="defs4">
    <linearGradient
       id="linearGradient7"
       inkscape:collect="always">
      <stop
         style="stop-color:#000000;stop-opacity:0.00392157;"
         offset="0"
         id="stop7" />
      <stop
         style="stop-color:#000000;stop-opacity:0;"
         offset="1"
         id="stop8" />
    </linearGradient>
    <rect
       x="170.2337"
       y="26.568266"
       width="427.06027"
       height="229.27429"
       id="rect4" />
    <linearGradient
       inkscape:collect="always"
       xlink:href="#linearGradient7"
       id="linearGradient8"
       x1="58.693269"
       y1="228.10855"
       x2="391.52451"
       y2="228.10855"
       gradientUnits="userSpaceOnUse" />
  </defs>
  <sodipodi:namedview
     id="namedview4"
     pagecolor="#ffffff"
     bordercolor="#000000"
     borderopacity="0.25"
     inkscape:showpageshadow="2"
     inkscape:pageopacity="0.0"
     inkscape:pagecheckerboard="0"
     inkscape:deskcolor="#d1d1d1"
     inkscape:zoom="1.01625"
     inkscape:cx="400.492"
     inkscape:cy="400"
     inkscape:window-width="1920"
     inkscape:window-height="1009"
     inkscape:window-x="-8"
     inkscape:window-y="-8"
     inkscape:window-maximized="1"
     inkscape:current-layer="svg4" />
  <g
     id="icomoon-ignore" />
  <path
     d="M12.8 3.2c-7.093 0-12.8 5.707-12.8 12.8s5.707 12.8 12.8 12.8c7.093 0 12.8-5.707 12.8-12.8s-5.707-12.8-12.8-12.8zM12.8 27.733c-6.453 0-11.733-5.28-11.733-11.733s5.28-11.733 11.733-11.733c6.453 0 11.733 5.28 11.733 11.733s-5.28 11.733-11.733 11.733z"
     fill="#000000"
     id="path1" />
  <path
     d="M19.467 19.040c-0.267-0.107-0.587-0.053-0.693 0.213-1.173 2.293-3.467 3.68-5.973 3.68-2.56 0-4.8-1.387-5.973-3.68-0.107-0.267-0.427-0.373-0.693-0.213-0.267 0.107-0.373 0.427-0.267 0.693 1.333 2.613 3.947 4.267 6.933 4.267 2.933 0 5.6-1.653 6.88-4.267 0.16-0.267 0.053-0.587-0.213-0.693z"
     fill="#000000"
     id="path2" />
  <path
     d="M10.133 13.333c0 0.884-0.716 1.6-1.6 1.6s-1.6-0.716-1.6-1.6c0-0.884 0.716-1.6 1.6-1.6s1.6 0.716 1.6 1.6z"
     fill="#000000"
     id="path3" />
  <path
     d="M18.667 13.333c0 0.884-0.716 1.6-1.6 1.6s-1.6-0.716-1.6-1.6c0-0.884 0.716-1.6 1.6-1.6s1.6 0.716 1.6 1.6z"
     fill="#000000"
     id="path4" />
  <g
     inkscape:groupmode="layer"
     id="layer1"
     inkscape:label="LayerText" />
  <path
     style="fill:#000000;fill-opacity:0.00392157;stroke-width:0.98401"
     d="m 204.93886,393.48597 c -9.18874,-1.18344 -23.46401,-4.44916 -32.24513,-7.37666 C 161.3287,382.32038 138.7916,370.73486 128.4251,363.35237 116.40335,354.7911 98.248673,336.61496 89.829812,324.71143 49.399432,267.54645 48.120045,193.73789 86.563679,136.28648 107.43758,105.09186 136.24353,82.749049 171.33652,70.533981 c 41.12287,-14.313936 85.29438,-11.771834 125.10556,7.199918 34.42836,16.406602 62.55395,44.532201 78.96056,78.960551 18.97107,39.80976 21.50696,83.82324 7.20975,125.13401 -23.46532,67.80136 -87.90072,113.38514 -159.21635,112.63501 -6.50865,-0.0685 -14.81438,-0.50833 -18.45718,-0.9775 z m 46.54824,-54.32641 c 21.60322,-5.56519 35.92232,-13.77794 51.58793,-29.58839 21.42003,-21.61807 27.50629,-38.96846 13.66957,-38.96846 -4.7133,0 -4.14434,-0.56628 -12.35801,12.30012 -9.61501,15.06154 -26.16817,28.99578 -42.54413,35.81312 -22.6897,9.44573 -48.94604,9.79322 -71.34598,0.94418 -19.1356,-7.55946 -35.26624,-21.41023 -46.67803,-40.08066 -5.30609,-8.6811 -7.72121,-10.62085 -11.9136,-9.56863 -7.39973,1.85721 -8.2529,7.85902 -2.51337,17.68083 13.7682,23.56089 37.041,42.01456 62.88283,49.86159 18.15611,5.51321 41.58008,6.14864 59.21279,1.6063 z M 171.10569,212.13707 c 6.48247,-1.95093 10.8008,-5.57337 13.78643,-11.56475 7.90454,-15.86236 -2.93217,-33.53665 -20.56248,-33.53665 -17.56685,0 -28.43857,17.73138 -20.56248,33.53665 2.91348,5.84658 7.28506,9.60191 13.40065,11.5116 5.52699,1.72587 8.34414,1.73662 13.93788,0.0531 z m 125.25998,-1.41451 c 8.17767,-4.20542 12.5486,-11.45624 12.54387,-20.80866 -0.007,-13.4697 -9.57857,-22.95625 -23.08061,-22.87519 -13.2596,0.0796 -22.76704,9.50961 -22.8475,22.66143 -0.0697,11.38605 6.56545,20.11202 17.46137,22.96386 4.36607,1.14274 11.65325,0.25423 15.92287,-1.94144 z"
     id="path5"
     transform="matrix(0.07017544,0,0,0.07017544,-3,0)" />
  <path
     style="fill:#000000;fill-opacity:0.00392157;stroke-width:0.98401"
     d="m 208.11808,393.91034 c -8.2425,-0.86792 -25.32533,-4.53403 -33.70765,-7.23394 -12.44785,-4.00939 -34.70421,-15.29288 -45.99715,-23.31954 -11.89858,-8.45714 -30.0536,-26.624 -38.629126,-38.65432 -7.46974,-10.47904 -18.971026,-32.91069 -22.888502,-44.64081 -8.874894,-26.57415 -10.597402,-57.57704 -4.789893,-86.21179 6.733686,-33.2014 26.727568,-67.31508 53.160431,-90.70265 20.86959,-18.465228 47.94625,-32.164008 75.23008,-38.060839 66.94822,-14.469465 136.67705,14.59969 174.32699,72.674929 26.09304,40.24865 33.70321,89.68618 20.7519,134.80935 -20.91788,72.87921 -87.42831,122.85447 -162.17912,121.85973 -6.50865,-0.0866 -13.38374,-0.32066 -15.27796,-0.52012 z m 43.36902,-54.75078 c 21.60322,-5.56519 35.92232,-13.77794 51.58793,-29.58839 21.42003,-21.61807 27.50629,-38.96846 13.66957,-38.96846 -4.7133,0 -4.14434,-0.56628 -12.35801,12.30012 -17.07025,26.7399 -47.07722,43.07186 -79.04834,43.02382 -35.10989,-0.0528 -63.99501,-16.75275 -82.31565,-47.59096 -2.26991,-3.82082 -5.12454,-7.4014 -6.34362,-7.95686 -4.8482,-2.20898 -11.21773,2.08314 -11.21773,7.55911 0,1.75344 1.65441,5.85922 3.93023,9.75373 13.7682,23.56089 37.041,42.01456 62.88283,49.86159 18.15611,5.51321 41.58008,6.14864 59.21279,1.6063 z M 171.10569,212.13707 c 6.48247,-1.95093 10.8008,-5.57337 13.78643,-11.56475 7.90454,-15.86236 -2.93217,-33.53665 -20.56248,-33.53665 -17.56685,0 -28.43857,17.73138 -20.56248,33.53665 2.91348,5.84658 7.28506,9.60191 13.40065,11.5116 5.52699,1.72587 8.34414,1.73662 13.93788,0.0531 z m 125.25998,-1.41451 c 8.17767,-4.20542 12.5486,-11.45624 12.54387,-20.80866 -0.007,-13.4697 -9.57857,-22.95625 -23.08061,-22.87519 -13.2596,0.0796 -22.76704,9.50961 -22.8475,22.66143 -0.0697,11.38605 6.56545,20.11202 17.46137,22.96386 4.36607,1.14274 11.65325,0.25423 15.92287,-1.94144 z"
     id="path6"
     transform="matrix(0.07017544,0,0,0.07017544,-3,0)" />
  <path
     style="fill:url(#linearGradient8);fill-opacity:0.00392157;stroke-width:0.98401"
     d="M 205.61626,393.56115 C 186.98043,391.12508 172.26241,386.71163 155.47355,378.525 132.37324,367.26075 124.05704,361.37256 107.28193,344.40344 94.496252,331.4699 90.489493,326.49077 83.408911,314.73689 72.565396,296.73646 64.387175,275.86445 61.489201,258.79459 c -0.597228,-3.51784 -1.279189,-7.50308 -1.515469,-8.85609 -0.236279,-1.35301 -0.718395,-8.03854 -1.071367,-14.85674 -2.584895,-49.9311 18.909532,-99.20719 58.194805,-133.4119 29.54178,-25.721299 67.71688,-39.925707 107.25707,-39.908822 33.44076,0.01428 60.48902,7.708032 88.91451,25.291322 11.4884,7.106429 18.2948,12.601471 29.1917,23.56743 15.16912,15.26528 23.66289,27.19006 32.64923,45.83777 5.60822,11.6377 5.45877,11.26119 9.13499,23.01538 9.17823,29.3461 9.70066,62.90115 1.43693,92.29249 -13.49877,48.01073 -46.05093,86.32586 -91.3459,107.51761 -21.90893,10.25034 -46.66354,15.43184 -72.44148,15.16308 -5.68266,-0.0593 -13.00775,-0.45749 -16.27796,-0.88497 z m 45.87084,-54.40159 c 21.60322,-5.56519 35.92232,-13.77794 51.58793,-29.58839 21.42003,-21.61807 27.50629,-38.96846 13.66957,-38.96846 -4.71096,0 -4.20399,-0.4978 -12.35801,12.13482 -9.12559,14.13782 -23.68844,27.06257 -38.21278,33.91446 -22.58268,10.65339 -51.03915,12.04204 -74.24951,3.6233 -19.82434,-7.19059 -36.35636,-21.49984 -49.28265,-42.65652 -2.10632,-3.44744 -4.80831,-6.71397 -6.00442,-7.25896 -4.80899,-2.19112 -11.17598,2.12616 -11.17598,7.57813 0,1.75344 1.65441,5.85922 3.93023,9.75373 13.7682,23.56089 37.041,42.01456 62.88283,49.86159 18.15611,5.51321 41.58008,6.14864 59.21279,1.6063 z M 171.10569,212.13707 c 6.48247,-1.95093 10.8008,-5.57337 13.78643,-11.56475 7.90454,-15.86236 -2.93217,-33.53665 -20.56248,-33.53665 -17.56685,0 -28.43857,17.73138 -20.56248,33.53665 2.91348,5.84658 7.28506,9.60191 13.40065,11.5116 5.52699,1.72587 8.34414,1.73662 13.93788,0.0531 z m 125.25998,-1.41451 c 8.17767,-4.20542 12.5486,-11.45624 12.54387,-20.80866 -0.007,-13.4697 -9.57857,-22.95625 -23.08061,-22.87519 -13.2596,0.0796 -22.76704,9.50961 -22.8475,22.66143 -0.0697,11.38605 6.56545,20.11202 17.46137,22.96386 4.36607,1.14274 11.65325,0.25423 15.92287,-1.94144 z"
     id="path7"
     transform="matrix(0.07017544,0,0,0.07017544,-3,0)" />
  <path
     style="fill:#000000;fill-opacity:0.00392157;stroke-width:0.98401"
     d="m 208.11808,393.90416 c -7.4173,-0.79433 -20.58827,-3.44997 -29.02829,-5.8529 -16.13397,-4.59346 -46.0953,-20.2342 -57.63151,-30.08542 -6.33236,-5.40745 -22.174156,-21.42752 -27.665477,-27.9768 C 84.209939,318.55993 70.281176,291.78976 65.414088,275.44698 53.506862,235.46474 57.739921,189.44391 76.659754,153.18673 104.28843,100.24028 153.98225,66.864944 212.54613,61.922803 c 27.3495,-2.307993 59.1863,3.681826 83.98742,15.801506 18.29238,8.939023 31.57563,18.453254 45.9269,32.895481 15.16912,15.26528 23.66289,27.19006 32.64923,45.83777 5.60822,11.6377 5.45877,11.26119 9.13499,23.01538 9.17823,29.3461 9.70066,62.90115 1.43693,92.29249 -13.49877,48.01073 -46.05093,86.32586 -91.3459,107.51761 -21.95675,10.27271 -46.87786,15.47782 -72.44148,15.13037 -5.68266,-0.0772 -11.88192,-0.30639 -13.77614,-0.50925 z m 43.36902,-54.73984 c 21.62184,-5.58092 35.92603,-13.78644 51.58793,-29.59315 21.42003,-21.61807 27.50629,-38.96846 13.66957,-38.96846 -4.71096,0 -4.20399,-0.4978 -12.35801,12.13482 -12.46548,19.31213 -30.53867,32.6975 -53.46494,39.5972 -11.76817,3.54165 -31.55533,4.42043 -43.94205,1.95154 -27.9494,-5.57081 -48.59982,-20.5583 -64.23996,-46.62355 -4.02121,-6.70158 -6.80051,-8.66441 -10.83479,-7.65188 -7.36162,1.84765 -8.24998,7.86402 -2.59106,17.54788 16.54389,28.31081 44.42017,47.63811 76.96975,53.36497 12.3397,2.17109 33.10763,1.36277 45.20356,-1.75937 z M 171.10569,212.13707 c 6.58446,-1.98163 10.87315,-5.64052 13.92652,-11.88138 3.61231,-7.38329 3.21757,-15.8101 -1.06237,-22.6794 -8.81235,-14.14381 -30.46804,-14.14381 -39.28039,0 -7.99124,12.82592 -1.75848,30.06196 12.47836,34.50763 5.52699,1.72587 8.34414,1.73662 13.93788,0.0531 z m 125.25998,-1.41451 c 8.17767,-4.20542 12.5486,-11.45624 12.54387,-20.80866 -0.007,-13.4697 -9.57857,-22.95625 -23.08061,-22.87519 -13.2596,0.0796 -22.76704,9.50961 -22.8475,22.66143 -0.0697,11.38605 6.56545,20.11202 17.46137,22.96386 4.36607,1.14274 11.65325,0.25423 15.92287,-1.94144 z"
     id="path8"
     transform="matrix(0.07017544,0,0,0.07017544,-3,0)" />
  <path
     style="fill:#000000;fill-opacity:0.00392157;stroke-width:0.98401"
     d="m 208.61009,393.90709 c -6.48874,-0.57704 -20.09485,-3.30719 -29.5203,-5.92342 -15.34507,-4.25936 -45.48021,-19.75466 -56.38907,-28.99493 -6.26142,-5.30368 -22.38184,-21.2814 -27.387726,-27.14529 -14.564936,-17.06131 -29.956577,-50.16553 -33.734958,-72.55686 -0.547948,-3.24723 -1.232533,-7.23247 -1.521299,-8.85609 -0.288767,-1.62361 -0.803637,-8.30939 -1.144155,-14.85727 -1.700906,-32.707 7.384376,-67.29386 24.858186,-94.63293 1.822756,-2.85183 3.314103,-5.58246 3.314103,-6.06806 0,-0.48559 0.339696,-1.0305 0.75488,-1.2109 0.415184,-0.18041 2.469349,-2.6852 4.564811,-5.5662 13.675628,-18.80236 36.041798,-37.709274 56.912338,-48.11004 25.46602,-12.690904 48.70711,-18.304401 75.52935,-18.24285 34.52126,0.07922 64.23718,9.096408 92.70855,28.132072 10.71043,7.160881 13.81016,9.754928 25.45778,21.304658 16.13734,16.00173 26.27478,31.3645 37.34514,56.5947 2.65546,6.05199 7.96388,26.04505 9.36131,35.25733 1.73356,11.42827 2.274,33.82194 1.04894,43.46345 -3.31851,26.11738 -12.61561,51.48554 -26.68635,72.81673 -14.26968,21.6328 -35.22781,41.2139 -57.07055,53.3208 -16.19168,8.97466 -25.00236,12.49064 -42.48762,16.95502 -16.55006,4.22561 -38.18168,5.89695 -55.91336,4.32008 z m 42.87701,-54.74277 c 12.228,-3.15622 22.19279,-7.35294 32.47373,-13.67644 18.33782,-11.27904 40.27041,-37.58341 40.27041,-48.2974 0,-4.68419 -2.62853,-6.79071 -7.99006,-6.40326 -4.21536,0.30462 -4.31715,0.40122 -10.87901,10.32552 -13.99509,21.16645 -31.17275,34.17064 -54.51732,41.27181 -7.9558,2.42007 -10.29993,2.67783 -25.01459,2.75051 -13.99842,0.0691 -17.45675,-0.23656 -25.09225,-2.21805 -15.53873,-4.03245 -29.06825,-11.72065 -41.32842,-23.48499 -6.83643,-6.55995 -8.78903,-9.13116 -17.52963,-23.08319 -4.70366,-7.50813 -9.62599,-8.73011 -14.42345,-3.58064 -2.99408,3.21376 -2.4703,7.38493 1.85728,14.79053 16.54389,28.31081 44.42017,47.63811 76.96975,53.36497 12.3397,2.17109 33.10763,1.36277 45.20356,-1.75937 z M 171.10569,212.13707 c 6.58446,-1.98163 10.87315,-5.64052 13.92652,-11.88138 3.61231,-7.38329 3.21757,-15.8101 -1.06237,-22.6794 -8.81235,-14.14381 -30.46804,-14.14381 -39.28039,0 -7.99124,12.82592 -1.75848,30.06196 12.47836,34.50763 5.52699,1.72587 8.34414,1.73662 13.93788,0.0531 z m 125.25998,-1.41451 c 8.17767,-4.20542 12.5486,-11.45624 12.54387,-20.80866 -0.007,-13.4697 -9.57857,-22.95625 -23.08061,-22.87519 -13.2596,0.0796 -22.76704,9.50961 -22.8475,22.66143 -0.0697,11.38605 6.56545,20.11202 17.46137,22.96386 4.36607,1.14274 11.65325,0.25423 15.92287,-1.94144 z"
     id="path9"
     transform="matrix(0.07017544,0,0,0.07017544,-3,0)" />
</svg>
